# xmcd
#
# Track frame offsets: 
#        150
#        18141
#        29250
#        43179
#        54542
#        69778
#        81315
#        92121
#        104644
#        117127
#        129843
#        143836
#        159775
#        172839
#
# Disc length: 2527 seconds
#
# Revision: 0
# Processed by: cddbd v1.5.2PL0 Copyright (c) Steve Scherf et al.
# Submitted via: ExactAudioCopy v1.0b4
#
DISCID=a809dd0e
DTITLE=Fontella Bass - Free (The Paula Recordings)
DYEAR=1972
DGENRE=Soul
TTITLE0=To Be Free
TTITLE1=Hold On This Time
TTITLE2=I Want Everyone To Know
TTITLE3=I Need To Be Loved
TTITLE4=Talki,G About Freedom
TTITLE5=I Need Love
TTITLE6=Wiping Tears
TTITLE7=Now That I've Found A Good Thing
TTITLE8=Who You Gonna Blame
TTITLE9=It Sure Is Good
TTITLE10=I'm Leaving The Choice To You
TTITLE11=Home Wrecker
TTITLE12=It's Hard To Get Back In
TTITLE13=My God, My Freedom, My Home
EXTD=
EXTT0=
EXTT1=
EXTT2=
EXTT3=
EXTT4=
EXTT5=
EXTT6=
EXTT7=
EXTT8=
EXTT9=
EXTT10=
EXTT11=
EXTT12=
EXTT13=
PLAYORDER=
